<?xml version="1.0" encoding="UTF-8"?>
<svg xmlns="http://www.w3.org/2000/svg" xmlns:xlink="http://www.w3.org/1999/xlink" width="64px" height="21px" viewBox="0 0 63 21" version="1.1">
<g id="surface1">
<path style=" stroke:none;fill-rule:nonzero;fill:rgb(72.941178%,16.470589%,55.29412%);fill-opacity:1;" d="M 6.519531 8.917969 C 6.679688 8.421875 6.914062 7.984375 7.226562 7.601562 C 7.542969 7.21875 7.9375 6.917969 8.410156 6.691406 C 8.878906 6.464844 9.425781 6.351562 10.050781 6.351562 C 10.675781 6.351562 11.222656 6.464844 11.691406 6.691406 C 12.164062 6.917969 12.558594 7.21875 12.871094 7.601562 C 13.1875 7.984375 13.425781 8.421875 13.582031 8.917969 C 13.742188 9.414062 13.820312 9.925781 13.820312 10.457031 C 13.820312 10.992188 13.742188 11.507812 13.582031 12.003906 C 13.421875 12.5 13.1875 12.9375 12.871094 13.316406 C 12.558594 13.699219 12.164062 14.003906 11.691406 14.226562 C 11.222656 14.449219 10.675781 14.5625 10.050781 14.5625 C 9.425781 14.5625 8.878906 14.449219 8.410156 14.226562 C 7.9375 14.003906 7.542969 13.699219 7.226562 13.316406 C 6.914062 12.9375 6.671875 12.5 6.519531 12.003906 C 6.359375 11.507812 6.28125 10.996094 6.28125 10.457031 C 6.28125 9.925781 6.359375 9.414062 6.519531 8.917969 Z M 7.480469 11.632812 C 7.585938 12.019531 7.746094 12.363281 7.96875 12.671875 C 8.191406 12.976562 8.472656 13.226562 8.816406 13.414062 C 9.160156 13.605469 9.570312 13.695312 10.050781 13.695312 C 10.53125 13.695312 10.941406 13.605469 11.285156 13.414062 C 11.628906 13.226562 11.914062 12.980469 12.132812 12.671875 C 12.355469 12.363281 12.515625 12.015625 12.621094 11.632812 C 12.726562 11.246094 12.777344 10.855469 12.777344 10.460938 C 12.777344 10.066406 12.726562 9.675781 12.621094 9.289062 C 12.515625 8.902344 12.355469 8.558594 12.132812 8.253906 C 11.910156 7.945312 11.628906 7.699219 11.285156 7.507812 C 10.941406 7.320312 10.523438 7.226562 10.050781 7.226562 C 9.570312 7.226562 9.160156 7.320312 8.816406 7.507812 C 8.472656 7.699219 8.1875 7.941406 7.96875 8.253906 C 7.746094 8.558594 7.585938 8.90625 7.480469 9.289062 C 7.375 9.675781 7.324219 10.066406 7.324219 10.460938 C 7.324219 10.859375 7.375 11.25 7.480469 11.632812 Z M 7.480469 11.632812 "/>
<path style=" stroke:none;fill-rule:nonzero;fill:rgb(72.941178%,16.470589%,55.29412%);fill-opacity:1;" d="M 15.378906 9.386719 L 15.378906 10.0625 L 15.398438 10.0625 C 15.53125 9.785156 15.746094 9.585938 16.035156 9.457031 C 16.324219 9.332031 16.644531 9.269531 16.992188 9.269531 C 17.378906 9.269531 17.714844 9.339844 18.003906 9.484375 C 18.289062 9.625 18.53125 9.816406 18.71875 10.058594 C 18.910156 10.300781 19.050781 10.578125 19.148438 10.894531 C 19.246094 11.210938 19.292969 11.546875 19.292969 11.898438 C 19.292969 12.25 19.25 12.585938 19.15625 12.90625 C 19.0625 13.222656 18.921875 13.5 18.730469 13.734375 C 18.542969 13.96875 18.304688 14.152344 18.019531 14.289062 C 17.730469 14.421875 17.394531 14.488281 17.019531 14.488281 C 16.898438 14.488281 16.757812 14.476562 16.605469 14.453125 C 16.457031 14.425781 16.304688 14.386719 16.15625 14.328125 C 16.011719 14.265625 15.867188 14.1875 15.738281 14.085938 C 15.605469 13.984375 15.492188 13.863281 15.40625 13.714844 L 15.390625 13.714844 L 15.390625 16.296875 L 14.5625 16.296875 L 14.5625 9.386719 Z M 18.320312 11.164062 C 18.257812 10.941406 18.164062 10.742188 18.039062 10.566406 C 17.914062 10.394531 17.753906 10.257812 17.554688 10.152344 C 17.359375 10.046875 17.132812 9.996094 16.867188 9.996094 C 16.589844 9.996094 16.355469 10.050781 16.160156 10.160156 C 15.96875 10.269531 15.8125 10.410156 15.6875 10.589844 C 15.566406 10.765625 15.476562 10.964844 15.421875 11.191406 C 15.367188 11.417969 15.34375 11.648438 15.34375 11.878906 C 15.34375 12.121094 15.371094 12.359375 15.429688 12.585938 C 15.488281 12.820312 15.582031 13.015625 15.703125 13.191406 C 15.828125 13.363281 15.988281 13.507812 16.191406 13.613281 C 16.394531 13.71875 16.632812 13.773438 16.914062 13.773438 C 17.195312 13.773438 17.433594 13.71875 17.625 13.609375 C 17.8125 13.5 17.96875 13.351562 18.082031 13.171875 C 18.199219 12.992188 18.277344 12.785156 18.332031 12.554688 C 18.382812 12.324219 18.410156 12.082031 18.410156 11.839844 C 18.414062 11.613281 18.382812 11.386719 18.320312 11.164062 Z M 18.320312 11.164062 "/>
<path style=" stroke:none;fill-rule:nonzero;fill:rgb(72.941178%,16.470589%,55.29412%);fill-opacity:1;" d="M 23.519531 14.066406 C 23.144531 14.347656 22.675781 14.488281 22.105469 14.488281 C 21.707031 14.488281 21.355469 14.425781 21.0625 14.296875 C 20.769531 14.167969 20.519531 13.984375 20.320312 13.753906 C 20.117188 13.523438 19.972656 13.246094 19.871094 12.921875 C 19.769531 12.601562 19.714844 12.25 19.703125 11.871094 C 19.703125 11.488281 19.761719 11.144531 19.878906 10.824219 C 19.996094 10.507812 20.160156 10.234375 20.371094 10 C 20.578125 9.769531 20.828125 9.589844 21.117188 9.457031 C 21.402344 9.328125 21.722656 9.265625 22.0625 9.265625 C 22.507812 9.265625 22.878906 9.359375 23.171875 9.542969 C 23.464844 9.726562 23.699219 9.960938 23.882812 10.242188 C 24.058594 10.53125 24.183594 10.839844 24.25 11.171875 C 24.316406 11.507812 24.347656 11.828125 24.335938 12.128906 L 20.578125 12.128906 C 20.570312 12.347656 20.601562 12.558594 20.65625 12.75 C 20.714844 12.949219 20.808594 13.121094 20.9375 13.273438 C 21.066406 13.421875 21.230469 13.546875 21.429688 13.632812 C 21.628906 13.722656 21.863281 13.769531 22.132812 13.769531 C 22.484375 13.769531 22.769531 13.6875 22.992188 13.523438 C 23.214844 13.363281 23.359375 13.117188 23.433594 12.789062 L 24.246094 12.789062 C 24.136719 13.359375 23.894531 13.785156 23.519531 14.066406 Z M 23.320312 10.855469 C 23.242188 10.683594 23.144531 10.535156 23.019531 10.40625 C 22.894531 10.28125 22.746094 10.179688 22.574219 10.109375 C 22.402344 10.035156 22.21875 10 22.007812 10 C 21.792969 10 21.605469 10.039062 21.433594 10.109375 C 21.261719 10.183594 21.117188 10.285156 20.992188 10.410156 C 20.871094 10.542969 20.773438 10.6875 20.703125 10.859375 C 20.628906 11.035156 20.589844 11.214844 20.574219 11.40625 L 23.445312 11.40625 C 23.4375 11.214844 23.394531 11.035156 23.320312 10.855469 Z M 23.320312 10.855469 "/>
<path style=" stroke:none;fill-rule:nonzero;fill:rgb(72.941178%,16.470589%,55.29412%);fill-opacity:1;" d="M 25.65625 9.386719 L 25.65625 10.179688 L 25.675781 10.179688 C 26.019531 9.574219 26.5625 9.269531 27.308594 9.269531 C 27.640625 9.269531 27.914062 9.316406 28.136719 9.402344 C 28.355469 9.496094 28.535156 9.617188 28.667969 9.78125 C 28.804688 9.941406 28.898438 10.132812 28.953125 10.355469 C 29.007812 10.578125 29.039062 10.828125 29.039062 11.097656 L 29.039062 14.390625 L 28.210938 14.390625 L 28.210938 11.003906 C 28.210938 10.691406 28.117188 10.449219 27.9375 10.269531 C 27.757812 10.089844 27.511719 9.996094 27.191406 9.996094 C 26.9375 9.996094 26.71875 10.035156 26.535156 10.113281 C 26.351562 10.1875 26.195312 10.300781 26.074219 10.441406 C 25.953125 10.585938 25.859375 10.746094 25.796875 10.941406 C 25.734375 11.128906 25.703125 11.339844 25.703125 11.566406 L 25.703125 14.394531 L 24.875 14.394531 L 24.875 9.386719 Z M 25.65625 9.386719 "/>
<path style=" stroke:none;fill-rule:nonzero;fill:rgb(72.941178%,16.470589%,55.29412%);fill-opacity:1;" d="M 34.769531 14.339844 C 34.394531 14.5 34.015625 14.574219 33.632812 14.574219 C 33.03125 14.574219 32.492188 14.46875 32.007812 14.257812 C 31.53125 14.050781 31.121094 13.757812 30.789062 13.394531 C 30.457031 13.023438 30.207031 12.597656 30.03125 12.097656 C 29.855469 11.601562 29.765625 11.0625 29.765625 10.492188 C 29.765625 9.902344 29.855469 9.359375 30.03125 8.855469 C 30.207031 8.347656 30.457031 7.910156 30.785156 7.535156 C 31.113281 7.160156 31.519531 6.867188 32 6.652344 C 32.480469 6.4375 33.019531 6.332031 33.625 6.332031 C 34.027344 6.332031 34.417969 6.398438 34.796875 6.515625 C 35.175781 6.636719 35.515625 6.816406 35.820312 7.050781 C 36.128906 7.285156 36.375 7.578125 36.578125 7.925781 C 36.773438 8.269531 36.898438 8.667969 36.941406 9.113281 L 35.292969 9.113281 C 35.191406 8.671875 34.988281 8.34375 34.695312 8.121094 C 34.402344 7.90625 34.046875 7.789062 33.628906 7.789062 C 33.238281 7.789062 32.910156 7.867188 32.636719 8.019531 C 32.363281 8.167969 32.148438 8.371094 31.980469 8.621094 C 31.8125 8.875 31.6875 9.164062 31.609375 9.488281 C 31.535156 9.8125 31.492188 10.148438 31.492188 10.492188 C 31.492188 10.824219 31.53125 11.144531 31.609375 11.457031 C 31.6875 11.773438 31.8125 12.050781 31.980469 12.300781 C 32.148438 12.554688 32.371094 12.75 32.636719 12.902344 C 32.910156 13.054688 33.238281 13.128906 33.628906 13.128906 C 34.199219 13.128906 34.644531 12.988281 34.957031 12.695312 C 35.265625 12.40625 35.453125 11.988281 35.503906 11.441406 L 33.769531 11.441406 L 33.769531 10.148438 L 37.066406 10.148438 L 37.066406 14.398438 L 35.96875 14.398438 L 35.792969 13.507812 C 35.484375 13.902344 35.140625 14.179688 34.769531 14.339844 Z M 34.769531 14.339844 "/>
<path style=" stroke:none;fill-rule:nonzero;fill:rgb(72.941178%,16.470589%,55.29412%);fill-opacity:1;" d="M 39.871094 6.535156 L 39.871094 12.933594 L 43.699219 12.933594 L 43.699219 14.394531 L 38.144531 14.394531 L 38.144531 6.535156 Z M 39.871094 6.535156 "/>
<path style=" stroke:none;fill-rule:nonzero;fill:rgb(72.941178%,16.470589%,55.29412%);fill-opacity:1;" d="M 31.714844 15.367188 C 29.078125 16.972656 25.125 17.882812 20.714844 17.882812 C 12.773438 17.882812 6.332031 14.574219 6.332031 10.496094 C 6.332031 6.417969 12.773438 3.109375 20.714844 3.109375 C 25.140625 3.109375 29.105469 4.035156 31.742188 5.652344 C 28.867188 2.953125 23.703125 1.050781 17.800781 1.050781 C 8.757812 1.050781 1.429688 5.28125 1.429688 10.496094 C 1.429688 15.714844 8.757812 19.949219 17.796875 19.949219 C 23.675781 19.949219 28.828125 18.054688 31.714844 15.367188 Z M 31.714844 15.367188 "/>
<path style=" stroke:none;fill-rule:nonzero;fill:rgb(72.941178%,16.470589%,55.29412%);fill-opacity:1;" d="M 46.316406 6.519531 L 52.195312 6.519531 L 52.195312 7.972656 L 48.042969 7.972656 L 48.042969 9.65625 L 51.851562 9.65625 L 51.851562 11 L 48.042969 11 L 48.042969 12.925781 L 52.28125 12.925781 L 52.28125 14.378906 L 46.316406 14.378906 Z M 46.316406 6.519531 "/>
<path style=" stroke:none;fill-rule:nonzero;fill:rgb(72.941178%,16.470589%,55.29412%);fill-opacity:1;" d="M 54.296875 11.769531 C 54.296875 12.8125 55.113281 13.222656 56.035156 13.222656 C 56.640625 13.222656 57.566406 13.046875 57.566406 12.242188 C 57.566406 11.394531 56.390625 11.25 55.230469 10.945312 C 54.0625 10.636719 52.886719 10.183594 52.886719 8.710938 C 52.886719 7.101562 54.40625 6.332031 55.828125 6.332031 C 57.46875 6.332031 58.976562 7.046875 58.976562 8.867188 L 57.304688 8.867188 C 57.25 7.921875 56.578125 7.675781 55.75 7.675781 C 55.199219 7.675781 54.5625 7.910156 54.5625 8.566406 C 54.5625 9.171875 54.9375 9.253906 56.90625 9.757812 C 57.476562 9.898438 59.242188 10.265625 59.242188 12.046875 C 59.242188 13.484375 58.105469 14.566406 55.972656 14.566406 C 54.234375 14.566406 52.605469 13.707031 52.625 11.769531 Z M 54.296875 11.769531 "/>
<path style="fill:none;stroke-width:11.645;stroke-linecap:round;stroke-linejoin:miter;stroke:rgb(72.941178%,16.470589%,55.29412%);stroke-opacity:1;stroke-miterlimit:4;" d="M 1070.498512 102.864583 L 1070.498512 396.484375 " transform="matrix(0.042,0,0,0.042,0,0)"/>
<path style=" stroke:none;fill-rule:nonzero;fill:rgb(72.941178%,16.470589%,55.29412%);fill-opacity:1;" d="M 60.3125 6.746094 L 60.003906 6.746094 L 60.003906 7.539062 L 59.742188 7.539062 L 59.742188 6.746094 L 59.433594 6.746094 L 59.433594 6.515625 L 60.3125 6.515625 Z M 60.3125 6.746094 "/>
<path style=" stroke:none;fill-rule:nonzero;fill:rgb(72.941178%,16.470589%,55.29412%);fill-opacity:1;" d="M 60.433594 6.519531 L 60.824219 6.519531 L 61 7.199219 L 61.003906 7.199219 L 61.179688 6.519531 L 61.570312 6.519531 L 61.570312 7.542969 L 61.320312 7.542969 L 61.320312 6.761719 L 61.316406 6.761719 L 61.101562 7.539062 L 60.898438 7.539062 L 60.6875 6.761719 L 60.679688 6.761719 L 60.679688 7.539062 L 60.429688 7.539062 L 60.429688 6.519531 Z M 60.433594 6.519531 "/>
<path style=" stroke:none;fill-rule:nonzero;fill:rgb(72.941178%,16.470589%,55.29412%);fill-opacity:1;" d="M 42.160156 7.246094 C 42.160156 7.375 42.125 7.5 42.058594 7.613281 C 41.992188 7.726562 41.902344 7.820312 41.789062 7.882812 C 41.675781 7.949219 41.554688 7.980469 41.421875 7.980469 C 41.289062 7.980469 41.167969 7.945312 41.050781 7.882812 C 40.9375 7.816406 40.84375 7.726562 40.78125 7.613281 C 40.714844 7.5 40.679688 7.378906 40.679688 7.246094 C 40.679688 7.113281 40.714844 6.992188 40.78125 6.875 C 40.847656 6.761719 40.9375 6.667969 41.050781 6.605469 C 41.164062 6.539062 41.285156 6.511719 41.421875 6.511719 C 41.550781 6.511719 41.675781 6.542969 41.789062 6.605469 C 41.902344 6.671875 41.996094 6.761719 42.058594 6.875 C 42.125 6.992188 42.160156 7.113281 42.160156 7.246094 Z M 42.015625 7.246094 C 42.015625 7.082031 41.957031 6.941406 41.84375 6.824219 C 41.726562 6.707031 41.589844 6.652344 41.425781 6.652344 C 41.261719 6.652344 41.121094 6.710938 41.003906 6.824219 C 40.886719 6.941406 40.832031 7.082031 40.832031 7.246094 C 40.832031 7.410156 40.890625 7.546875 41.003906 7.664062 C 41.121094 7.78125 41.261719 7.835938 41.425781 7.835938 C 41.589844 7.835938 41.726562 7.777344 41.84375 7.664062 C 41.957031 7.550781 42.015625 7.410156 42.015625 7.246094 Z M 41.089844 6.855469 L 41.441406 6.855469 C 41.542969 6.855469 41.613281 6.875 41.660156 6.914062 C 41.707031 6.957031 41.726562 7.003906 41.726562 7.078125 C 41.726562 7.132812 41.710938 7.171875 41.675781 7.214844 C 41.644531 7.253906 41.589844 7.28125 41.515625 7.300781 C 41.546875 7.3125 41.566406 7.324219 41.585938 7.335938 C 41.605469 7.355469 41.625 7.382812 41.648438 7.417969 C 41.648438 7.421875 41.6875 7.496094 41.773438 7.644531 L 41.539062 7.644531 C 41.460938 7.492188 41.410156 7.40625 41.386719 7.375 C 41.363281 7.347656 41.335938 7.332031 41.3125 7.332031 C 41.308594 7.332031 41.296875 7.332031 41.285156 7.335938 L 41.285156 7.648438 L 41.089844 7.648438 Z M 41.285156 7.1875 L 41.371094 7.1875 C 41.425781 7.1875 41.464844 7.179688 41.492188 7.15625 C 41.515625 7.140625 41.527344 7.113281 41.527344 7.085938 C 41.527344 7.054688 41.511719 7.03125 41.492188 7.015625 C 41.472656 6.996094 41.433594 6.984375 41.378906 6.984375 L 41.285156 6.984375 Z M 41.285156 7.1875 "/>
</g>
</svg>
